<svg width="631" height="43" viewBox="0 0 631 43" fill="none" xmlns="http://www.w3.org/2000/svg">
<path fill-rule="evenodd" clip-rule="evenodd" d="M466.431 32.8406L466.714 32.6646C467.576 32.1202 468.415 31.342 468.87 30.2884C469.007 30.0386 469.078 29.7422 469.182 29.4684C469.214 29.3163 469.247 29.1692 469.286 29.0203C469.329 28.8762 469.334 28.7096 469.361 28.5574C469.441 27.9266 469.476 27.2509 469.398 26.5416C469.227 24.6137 468.543 22.7836 467.713 21.3249C467.307 20.5755 466.822 19.9718 466.37 19.421C465.906 18.8942 465.449 18.4476 465.044 18.1194C464.026 17.884 462.55 17.7511 460.92 18.0265C460.06 18.1962 459.123 18.3562 458.26 18.6573C457.829 18.803 457.41 18.9726 457.034 19.1695C456.837 19.2608 456.688 19.3938 456.505 19.4851C456.431 19.5507 456.361 19.6052 456.286 19.6693L456.174 19.7478L456.082 19.8406C455.712 20.2089 455.504 20.5754 455.389 21.0478C455.282 21.5089 455.314 22.0725 455.448 22.6121C455.719 23.7025 456.375 24.6952 457.078 25.2268C457.431 25.5022 457.799 25.6577 458.153 25.6994C458.199 25.7074 458.244 25.7168 458.287 25.7216C458.33 25.72 458.374 25.7201 458.415 25.7185C458.502 25.712 458.588 25.7152 458.672 25.7072C458.827 25.664 458.993 25.6464 459.128 25.5871C459.266 25.5279 459.389 25.4734 459.494 25.427C459.597 25.3613 459.68 25.3039 459.751 25.2575C459.895 25.1646 459.97 25.1164 459.97 25.1164C459.97 25.1164 459.932 25.1982 459.856 25.3519C459.818 25.432 459.77 25.5281 459.707 25.645C459.631 25.749 459.538 25.8706 459.426 26.0099C459.315 26.1476 459.15 26.2644 458.976 26.4133C458.88 26.4742 458.776 26.527 458.663 26.5879C458.606 26.6183 458.547 26.6472 458.487 26.676C458.426 26.6985 458.361 26.7178 458.295 26.737C457.77 26.9196 457.085 26.9386 456.412 26.7448C455.061 26.3606 453.701 25.3118 452.851 23.6497C452.44 22.8219 452.147 21.7989 452.243 20.6541C452.305 20.0776 452.435 19.4852 452.712 18.9328L452.918 18.5259L453.178 18.1578C453.349 17.8968 453.559 17.6852 453.772 17.4754L453.99 17.2515L454.223 17.0817C454.377 16.9632 454.534 16.8446 454.691 16.739C455.013 16.5564 455.335 16.3596 455.656 16.2411C456.302 15.9641 456.937 15.7929 457.544 15.6888C457.847 15.6504 458.143 15.6087 458.438 15.5718C458.724 15.5574 459.008 15.5446 459.286 15.5318C459.567 15.5174 459.832 15.5318 460.095 15.5446C460.356 15.5718 460.611 15.5831 460.862 15.5959C461.123 15.6359 461.382 15.6741 461.627 15.7141C461.749 15.7413 461.871 15.7542 461.992 15.7798C462.111 15.807 462.228 15.8455 462.343 15.8727C462.569 15.9383 462.79 16.0041 463.003 16.0697C463.212 16.1482 463.414 16.2411 463.603 16.3196C464.367 16.6478 464.956 17.0543 465.4 17.3954C465.954 17.5283 466.62 17.7783 467.356 18.145C468.07 18.5517 468.881 19.0656 469.611 19.815C471.086 21.2721 472.445 23.5058 472.695 26.2454C472.804 27.2462 472.704 28.266 472.464 29.2139C472.392 29.4524 472.346 29.6895 472.25 29.9169C472.157 30.1427 472.062 30.3635 471.971 30.5877C471.74 31.012 471.526 31.4315 471.226 31.7902C470.961 32.1664 470.626 32.474 470.315 32.7718C470.155 32.9175 469.973 33.0313 469.808 33.1562C469.638 33.2747 469.478 33.3994 469.297 33.4827C468.945 33.6668 468.613 33.8478 468.269 33.9486C468.101 34.0063 467.936 34.059 467.774 34.1135C467.614 34.1615 467.449 34.1808 467.296 34.216L467.081 34.2592L466.277 34.6066C464.681 35.7979 462.53 37.1496 459.815 38.3585C459.366 38.5538 458.912 38.7636 458.441 38.9589C457.964 39.1383 457.474 39.3224 456.976 39.5065C456.724 39.5978 456.473 39.692 456.217 39.7849C455.957 39.8681 455.697 39.9499 455.432 40.0332C454.904 40.1965 454.366 40.3709 453.815 40.5311C451.601 41.1379 449.197 41.6489 446.643 42.0172C444.086 42.3614 441.387 42.5759 438.588 42.6351C435.789 42.688 432.892 42.5696 429.943 42.3102C421.921 41.5784 414.579 39.8169 408.5 37.8218C405.459 36.8227 402.727 35.7627 400.364 34.7267C397.994 33.694 396.004 32.6694 394.404 31.8352C390.995 30.6247 386.075 28.74 380.173 26.5015C377.214 25.4031 374.015 24.2023 370.604 23.0574C367.195 21.903 363.583 20.7869 359.812 19.8278C354.263 18.4204 348.889 17.5285 343.946 17.1474C339.112 16.6878 334.71 17.5283 331.039 18.4089C329.713 18.7212 328.48 19.0544 327.346 19.3747C326.644 19.7702 325.965 20.0888 325.329 20.3354L325.014 20.5756C323.427 21.7989 321.976 23.0332 320.93 24.3462C319.867 25.6464 319.32 26.9996 319.369 28.3382C319.408 29.688 320.011 30.9927 320.676 32.0719C320.85 32.3361 321.015 32.6117 321.188 32.8262C321.275 32.9367 321.355 33.0552 321.444 33.1593C321.541 33.2602 321.632 33.3609 321.721 33.4586C322.09 33.8493 322.485 34.1666 322.855 34.4356C323.717 34.7446 324.809 34.999 326.082 35.0423C327.348 35.0919 328.788 34.9653 330.265 34.565C331.002 34.3585 331.748 34.0975 332.469 33.7516C333.183 33.4026 333.873 32.9734 334.472 32.4578C335.067 31.9439 335.567 31.3436 335.897 30.6872C336.23 30.0243 336.396 29.3053 336.38 28.5271C336.38 28.383 336.355 28.2371 336.348 28.093L336.332 27.8754L336.289 27.6543L336.204 27.2139L336.075 26.7705C335.999 26.4807 335.881 26.1702 335.762 25.8851C335.645 25.5969 335.514 25.3296 335.376 25.083C335.104 24.5882 334.786 24.1878 334.469 23.9525C334.148 23.7027 333.835 23.5712 333.445 23.5584C332.656 23.5184 331.658 24.0308 330.912 24.6792C330.15 25.3357 329.556 26.1478 329.265 26.91C329.121 27.2878 329.057 27.6513 329.095 27.9395C329.124 28.2229 329.265 28.4757 329.492 28.6535C329.723 28.8424 330.033 28.9657 330.333 29.0394C330.637 29.1194 330.936 29.1499 331.21 29.1707C331.758 29.2059 332.198 29.1755 332.496 29.1579C332.792 29.1355 332.951 29.1226 332.951 29.1226C332.951 29.1226 332.803 29.182 332.526 29.2989C332.243 29.4046 331.827 29.5663 331.249 29.688C330.96 29.744 330.631 29.7999 330.253 29.8031C329.875 29.8079 329.441 29.7713 328.972 29.5663C328.498 29.3646 328.03 28.9241 327.806 28.3317C327.575 27.7488 327.564 27.121 327.652 26.5222C327.848 25.3245 328.41 24.175 329.276 23.1118C329.713 22.585 330.237 22.0871 330.888 21.6548C331.534 21.2337 332.333 20.8639 333.276 20.7726C333.745 20.7213 334.248 20.7451 334.741 20.8636C335.234 20.9693 335.706 21.1808 336.127 21.4434C336.55 21.6932 336.925 22.0086 337.242 22.3497C337.569 22.6908 337.839 23.0463 338.081 23.4274C338.321 23.794 338.531 24.1749 338.709 24.5576C338.894 24.9499 339.053 25.3278 339.189 25.7554C339.258 25.9667 339.328 26.1766 339.392 26.3911C339.442 26.6137 339.49 26.8378 339.538 27.062L339.607 27.3997L339.64 27.7506C339.66 27.9876 339.69 28.2228 339.693 28.463C339.727 29.7728 339.386 31.1146 338.755 32.2242C338.129 33.3371 337.259 34.216 336.348 34.8725C334.499 36.195 332.504 36.7379 330.704 36.9509C328.893 37.1542 327.234 36.9844 325.838 36.6338C324.435 36.2863 323.305 35.7117 322.482 35.1449C322.014 34.9639 321.497 34.7301 320.971 34.3843C320.841 34.2946 320.706 34.2047 320.567 34.1135C320.436 34.0126 320.311 33.9006 320.173 33.787C319.896 33.566 319.667 33.3179 319.409 33.0649C318.918 32.5429 318.417 31.9407 317.975 31.2138C317.531 30.4885 317.152 29.627 316.963 28.6391C316.764 27.6543 316.809 26.5496 317.081 25.4977C317.358 24.4393 317.845 23.4546 318.45 22.5467C318.684 22.1993 318.934 21.8644 319.195 21.541L319.094 21.5604L319.217 21.5138C320.309 20.1688 321.617 19.0112 322.993 17.948C325.537 16.0041 328.104 14.5456 330.413 13.2198C332.728 11.918 334.803 10.7745 336.478 9.72248L336.974 9.40724C337.548 8.78918 338.151 8.15502 338.798 7.51615C339.628 6.71555 340.524 5.88776 341.62 5.14C342.193 4.75732 342.726 4.49472 343.291 4.17929C343.571 4.02237 343.853 3.87676 344.138 3.72145L344.566 3.48439L345.012 3.28581C345.611 3.02161 346.221 2.74781 346.835 2.48521C347.456 2.22102 348.108 2.02413 348.756 1.78876C349.081 1.67027 349.408 1.55165 349.739 1.46038C350.077 1.36752 350.413 1.27645 350.754 1.18518C351.095 1.10512 351.436 1.01219 351.781 0.920921C351.954 0.882492 352.125 0.828003 352.298 0.789574L352.825 0.696693C355.63 0.105854 358.611 -0.0766335 361.623 0.0274429C365.729 0.198772 369.632 0.946579 373.193 2.00016C376.759 3.06335 380 4.389 382.892 5.78204C388.573 8.58093 393.24 10.9988 396.424 12.6928C398.114 13.3237 400.185 14.1114 402.566 15.0321C404.94 15.964 407.632 17.029 410.572 18.185C413.51 19.3411 416.685 20.6155 420.028 21.9941C421.692 22.7179 423.434 23.3489 425.195 24.0438C426.96 24.7403 428.756 25.4559 430.58 26.1972C431.917 26.7465 433.24 27.2908 434.543 27.8272C435.856 28.3524 437.151 28.8664 438.423 29.374C440.956 30.3923 443.383 31.3403 445.719 32.1345C448.056 32.9191 450.301 33.5404 452.433 33.9214C454.568 34.3121 456.582 34.4515 458.427 34.3987C461.757 34.2914 464.489 33.5484 466.431 32.8406ZM21.7685 27.3181C23.4049 27.3181 24.7307 25.9906 24.7307 24.3606V25.507H141.062C142.447 26.8072 145.286 28.4886 146.966 28.4886C149.251 28.4886 151.102 26.6375 151.102 24.3606C151.102 22.0725 149.251 20.2215 146.966 20.2215C145.195 20.2215 142.141 21.7845 140.857 23.2031H24.7307V24.3606C24.7307 22.7177 23.4049 21.3905 21.7685 21.3905C20.1321 21.3905 18.8063 22.7177 18.8063 24.3606C18.8063 25.9906 20.1321 27.3181 21.7685 27.3181ZM15.7096 30.1377L14.3886 24.3062C14.371 24.2421 14.3726 24.1623 14.3902 24.0838L15.7672 18.5788C15.8713 18.1576 15.4245 17.8295 15.0515 18.0393L10.9556 20.3914C9.54818 21.1936 8.03343 21.7988 6.45626 22.1783L0.373331 23.6769C-0.108628 23.781 -0.129434 24.4647 0.342918 24.6104L7.4298 26.8171C8.33607 27.0973 9.2135 27.4718 10.0461 27.9314L14.9986 30.6709C15.3669 30.8742 15.8024 30.5476 15.7096 30.1377ZM297.523 29.1226C297.523 29.1226 297.67 29.182 297.947 29.2989C298.23 29.4046 298.647 29.5663 299.223 29.688C299.511 29.744 299.841 29.7999 300.221 29.8031C300.597 29.8079 301.033 29.7713 301.502 29.5663C301.974 29.3646 302.443 28.9241 302.667 28.3317C302.898 27.7488 302.908 27.121 302.819 26.5222C302.626 25.3245 302.062 24.175 301.196 23.1118C300.76 22.585 300.235 22.0871 299.583 21.6548C298.938 21.2337 298.142 20.8639 297.198 20.7726C296.725 20.7213 296.224 20.7451 295.731 20.8636C295.239 20.9693 294.765 21.1808 294.346 21.4434C293.923 21.6932 293.548 22.0086 293.233 22.3497C292.906 22.6908 292.634 23.0463 292.392 23.4274C292.152 23.794 291.942 24.1749 291.763 24.5576C291.577 24.9499 291.419 25.3278 291.284 25.7554C291.214 25.9667 291.142 26.1766 291.078 26.3911C291.031 26.6137 290.983 26.8378 290.934 27.062L290.867 27.3997L290.831 27.7506C290.814 27.9876 290.783 28.2228 290.778 28.463C290.745 29.7728 291.086 31.1146 291.717 32.2242C292.344 33.3371 293.211 34.216 294.125 34.8725C295.974 36.195 297.968 36.7379 299.768 36.9509C301.58 37.1542 303.239 36.9844 304.635 36.6338C306.036 36.2863 307.168 35.7117 307.99 35.1449C308.457 34.9639 308.976 34.7301 309.503 34.3843C309.632 34.2946 309.767 34.2047 309.903 34.1135C310.038 34.0126 310.162 33.9006 310.297 33.787C310.576 33.566 310.806 33.3179 311.062 33.0649C311.556 32.5429 312.057 31.9407 312.499 31.2138C312.939 30.4885 313.318 29.627 313.511 28.6391C313.708 27.6543 313.664 26.5496 313.391 25.4977C313.115 24.4393 312.627 23.4546 312.02 22.5467C311.786 22.1993 311.538 21.8644 311.277 21.541L311.378 21.5604L311.254 21.5138C310.164 20.1688 308.854 19.0112 307.477 17.948C304.936 16.0041 302.369 14.5456 300.059 13.2198C297.745 11.918 295.667 10.7745 293.994 9.72248L293.496 9.40724C292.922 8.78918 292.32 8.15342 291.674 7.51615C290.847 6.71555 289.947 5.88776 288.854 5.14C288.281 4.75732 287.744 4.49472 287.181 4.17929C286.9 4.02237 286.62 3.87676 286.335 3.72145L285.908 3.48439L285.461 3.28581C284.859 3.02161 284.252 2.74781 283.637 2.48521C283.017 2.22102 282.364 2.02413 281.717 1.78876C281.391 1.67027 281.066 1.55165 280.733 1.46038C280.396 1.36752 280.058 1.27645 279.719 1.18518C279.378 1.10512 279.034 1.01219 278.693 0.920921C278.52 0.882492 278.347 0.828003 278.174 0.789574L277.647 0.696693C274.842 0.105854 271.862 -0.0766335 268.848 0.0274429C264.745 0.198772 260.839 0.946579 257.278 2.00016C253.712 3.06335 250.472 4.389 247.581 5.78204C241.9 8.58093 237.231 10.9988 234.048 12.6928C232.359 13.3237 230.289 14.1114 227.908 15.0321C225.533 15.964 222.841 17.029 219.9 18.185C216.964 19.3411 213.787 20.6155 210.443 21.9941C208.781 22.7179 207.036 23.3489 205.278 24.0438C203.513 24.7403 201.715 25.4559 199.893 26.1972C198.556 26.7465 197.232 27.2908 195.93 27.8272C194.616 28.3524 193.322 28.8664 192.051 29.374C189.517 30.3923 187.088 31.3403 184.752 32.1345C182.418 32.9191 180.171 33.5404 178.04 33.9214C175.906 34.3121 173.89 34.4515 172.045 34.3987C168.716 34.2914 165.986 33.5484 164.042 32.8406L163.759 32.6646C162.898 32.1202 162.059 31.342 161.604 30.2884C161.466 30.0386 161.394 29.7422 161.292 29.4684C161.26 29.3163 161.224 29.1692 161.186 29.0203C161.144 28.8762 161.141 28.7096 161.111 28.5574C161.032 27.9266 160.997 27.2509 161.077 26.5416C161.245 24.6137 161.927 22.7836 162.76 21.3249C163.165 20.5755 163.652 19.9718 164.1 19.421C164.568 18.8942 165.022 18.4476 165.427 18.1194C166.447 17.884 167.924 17.7511 169.551 18.0265C170.412 18.1962 171.352 18.3562 172.212 18.6573C172.642 18.803 173.062 18.9726 173.438 19.1695C173.637 19.2608 173.784 19.3938 173.967 19.4851C174.04 19.5507 174.112 19.6052 174.188 19.6693L174.3 19.7478L174.389 19.8406C174.758 20.2089 174.969 20.5754 175.084 21.0478C175.19 21.5089 175.16 22.0725 175.025 22.6121C174.753 23.7025 174.095 24.6952 173.395 25.2268C173.043 25.5022 172.673 25.6577 172.321 25.6994C172.274 25.7074 172.229 25.7168 172.185 25.7216C172.141 25.72 172.098 25.7201 172.056 25.7185C171.972 25.712 171.883 25.7152 171.8 25.7072C171.645 25.664 171.48 25.6464 171.345 25.5871C171.206 25.5279 171.083 25.4734 170.977 25.427C170.876 25.3613 170.791 25.3039 170.723 25.2575C170.577 25.1646 170.502 25.1164 170.502 25.1164C170.502 25.1164 170.542 25.1982 170.615 25.3519C170.652 25.432 170.7 25.5281 170.766 25.645C170.843 25.749 170.934 25.8706 171.048 26.0099C171.158 26.1476 171.323 26.2644 171.496 26.4133C171.592 26.4742 171.696 26.527 171.808 26.5879C171.867 26.6183 171.925 26.6472 171.986 26.676C172.047 26.6985 172.111 26.7178 172.176 26.737C172.703 26.9196 173.389 26.9386 174.06 26.7448C175.411 26.3606 176.772 25.3118 177.621 23.6497C178.034 22.8219 178.327 21.7989 178.231 20.6541C178.167 20.0776 178.035 19.4852 177.761 18.9328L177.555 18.5259L177.294 18.1578C177.124 17.8968 176.914 17.6852 176.701 17.4754L176.48 17.2515L176.25 17.0817C176.095 16.9632 175.938 16.8446 175.781 16.739C175.461 16.5564 175.135 16.3596 174.815 16.2411C174.168 15.9641 173.536 15.7929 172.927 15.6888C172.626 15.6504 172.329 15.6087 172.036 15.5718C171.749 15.5574 171.466 15.5446 171.187 15.5318C170.907 15.5174 170.641 15.5318 170.378 15.5446C170.116 15.5718 169.86 15.5831 169.61 15.5959C169.35 15.6359 169.093 15.6741 168.846 15.7141C168.721 15.7413 168.599 15.7542 168.481 15.7798C168.364 15.807 168.246 15.8455 168.129 15.8727C167.903 15.9383 167.684 16.0041 167.471 16.0697C167.258 16.1482 167.061 16.2411 166.87 16.3196C166.106 16.6478 165.516 17.0543 165.075 17.3954C164.52 17.5283 163.854 17.7783 163.117 18.145C162.401 18.5517 161.591 19.0656 160.862 19.815C159.388 21.2721 158.028 23.5058 157.775 26.2454C157.67 27.2462 157.769 28.266 158.009 29.2139C158.08 29.4524 158.128 29.6895 158.224 29.9169C158.317 30.1427 158.409 30.3635 158.502 30.5877C158.733 31.012 158.947 31.4315 159.247 31.7902C159.511 32.1664 159.847 32.474 160.158 32.7718C160.318 32.9175 160.499 33.0313 160.666 33.1562C160.834 33.2747 160.995 33.3994 161.176 33.4827C161.529 33.6668 161.86 33.8478 162.204 33.9486C162.372 34.0063 162.537 34.059 162.697 34.1135C162.859 34.1615 163.022 34.1808 163.176 34.216L163.391 34.2592L164.195 34.6066C165.791 35.7963 167.941 37.1496 170.66 38.3585C171.104 38.5538 171.562 38.7636 172.032 38.9589C172.51 39.1383 172.999 39.3224 173.497 39.5065C173.747 39.5978 174 39.692 174.256 39.7849C174.514 39.8681 174.775 39.9499 175.039 40.0332C175.569 40.1965 176.107 40.3709 176.658 40.5311C178.873 41.1379 181.276 41.6489 183.83 42.0172C186.386 42.3614 189.085 42.5759 191.886 42.6351C194.683 42.688 197.579 42.5696 200.53 42.3102C208.552 41.5784 215.894 39.8169 221.972 37.8218C225.014 36.8227 227.744 35.7627 230.111 34.7267C232.476 33.694 234.468 32.6694 236.066 31.8352C239.476 30.6247 244.398 28.74 250.302 26.5015C253.261 25.4031 256.458 24.2023 259.869 23.0574C263.278 21.903 266.89 20.7869 270.659 19.8278C276.209 18.4204 281.583 17.5285 286.524 17.1474C291.361 16.6878 295.76 17.5283 299.433 18.4089C300.759 18.7212 301.993 19.0544 303.125 19.3747C303.83 19.7702 304.509 20.0888 305.144 20.3354L305.46 20.5756C307.045 21.7989 308.497 23.0332 309.543 24.3462C310.604 25.6464 311.154 26.9996 311.104 28.3382C311.064 29.688 310.46 30.9927 309.797 32.0719C309.621 32.3361 309.458 32.6117 309.283 32.8262C309.197 32.9367 309.117 33.0552 309.027 33.1593C308.934 33.2602 308.841 33.3609 308.752 33.4586C308.382 33.8493 307.988 34.1666 307.617 34.4356C306.755 34.7446 305.663 34.999 304.39 35.0423C303.124 35.0919 301.686 34.9653 300.208 34.565C299.471 34.3585 298.725 34.0975 298.005 33.7516C297.289 33.4026 296.6 32.9734 296.002 32.4578C295.406 31.9439 294.906 31.3436 294.575 30.6872C294.243 30.0243 294.075 29.3053 294.091 28.5271C294.093 28.383 294.118 28.2371 294.125 28.093L294.139 27.8754L294.184 27.6543L294.266 27.2139L294.399 26.7705C294.474 26.4807 294.592 26.1702 294.711 25.8851C294.828 25.5969 294.958 25.3296 295.094 25.083C295.367 24.5882 295.686 24.1878 296.005 23.9525C296.323 23.7027 296.636 23.5712 297.026 23.5584C297.814 23.5184 298.815 24.0308 299.561 24.6792C300.32 25.3357 300.917 26.1478 301.209 26.91C301.351 27.2878 301.415 27.6513 301.377 27.9395C301.348 28.2229 301.209 28.4757 300.981 28.6535C300.749 28.8424 300.438 28.9657 300.137 29.0394C299.836 29.1194 299.535 29.1499 299.262 29.1707C298.716 29.2059 298.275 29.1755 297.977 29.1579C297.678 29.1355 297.523 29.1226 297.523 29.1226ZM165.258 34.3217L165.631 34.2864L166.326 34.5747L165.33 34.3602L165.258 34.3217ZM181.83 35.6699C183.053 35.4378 184.301 35.1497 185.562 34.8102C188.048 34.1329 190.59 33.2777 193.178 32.3378C194.465 31.8638 195.772 31.3789 197.102 30.8873C198.422 30.3573 199.759 29.8192 201.113 29.2764C202.953 28.5303 204.756 27.7842 206.519 27.0444C208.277 26.2935 210.014 25.5985 211.651 24.8075C214.944 23.2703 218.046 21.7844 220.89 20.3914C222.316 19.7093 223.668 19.0238 224.947 18.3689C226.223 17.7108 227.432 17.0818 228.569 16.491C230.835 15.3205 232.79 14.2828 234.38 13.4149C237.765 12.1676 242.68 10.3408 248.545 8.00307C251.452 6.88544 254.649 5.80928 258.08 4.95424C261.513 4.1008 265.185 3.49718 268.978 3.33866C271.767 3.24579 274.496 3.35162 277.074 3.81276L277.559 3.89095C277.717 3.91656 277.876 3.95504 278.033 3.98227C278.352 4.06072 278.665 4.12646 278.981 4.19211C279.295 4.25776 279.607 4.32508 279.918 4.38913C280.227 4.482 280.528 4.57307 280.829 4.66433C281.431 4.84847 282.042 4.99435 282.62 5.20411C283.198 5.41547 283.772 5.63796 284.337 5.84772L284.756 6.00627L285.166 6.18891C285.438 6.32021 285.706 6.44008 285.973 6.57138C286.497 6.81956 287.075 7.04371 287.509 7.3063C288.242 7.72261 288.952 8.23026 289.632 8.77146L288.775 8.50094C288.462 8.42249 288.148 8.3439 287.832 8.25263C287.2 8.0829 286.551 7.9774 285.896 7.8317C285.237 7.72762 284.572 7.5946 283.893 7.51615C282.542 7.33201 281.154 7.24063 279.745 7.2006C276.919 7.13655 274.012 7.35934 271.085 7.79166C267.103 8.38411 263.347 9.31599 259.853 10.3408C256.359 11.3799 253.122 12.483 250.156 13.5206C248.674 14.0474 247.256 14.5325 245.9 15.0449C245.562 15.1762 245.229 15.2948 244.899 15.4133C244.574 15.5446 244.254 15.6741 243.939 15.7926C243.306 16.0568 242.693 16.2924 242.101 16.5294C239.747 17.5286 237.736 18.433 236.114 19.2095C232.686 20.2871 227.744 22.034 221.877 24.2933C216 26.5094 209.206 29.2459 201.824 31.59C199.109 32.4499 196.436 33.1849 193.839 33.8126C191.242 34.4387 188.709 34.8807 186.285 35.2362C184.755 35.4363 183.266 35.5787 181.83 35.6699ZM171.784 36.9812C172.191 37.0725 172.609 37.1607 173.038 37.2439C176.817 37.9933 181.454 38.368 186.571 38.0173C189.122 37.8027 191.794 37.4697 194.518 36.9109C197.238 36.3472 200.026 35.6347 202.82 34.7477C206.625 33.5468 210.206 32.1506 213.548 30.7303C216.888 29.3101 219.988 27.8689 222.832 26.5175C228.508 23.8067 233.166 21.4963 236.408 19.9592C238.114 19.4212 240.213 18.763 242.637 18.0537C245.071 17.3444 247.801 16.6349 250.865 15.8455C253.906 15.0449 257.184 14.1514 260.65 13.2964C264.117 12.443 267.776 11.6296 271.569 11.0644C277.144 10.2222 282.513 10.0925 287.23 10.9844C287.525 11.05 287.816 11.1045 288.108 11.1557C288.396 11.223 288.681 11.3015 288.964 11.3656C289.537 11.4841 290.082 11.668 290.633 11.8137C291.166 11.9834 291.717 12.1675 292.212 12.3501C292.695 12.523 293.166 12.7586 293.629 12.9955C295.472 13.9675 297.108 15.2292 298.632 16.3596L298.668 16.3868C297.174 15.8872 295.55 15.4132 293.789 15.0449C293.222 14.9264 292.645 14.7953 292.048 14.7168C291.456 14.624 290.851 14.5326 290.229 14.4926C289.917 14.4526 289.605 14.4269 289.289 14.4013C288.972 14.3741 288.654 14.374 288.33 14.3628C288.008 14.35 287.683 14.3356 287.357 14.3356C287.04 14.3356 286.721 14.35 286.398 14.3628C281.251 14.4269 275.594 15.1633 269.844 16.6076C265.941 17.6196 262.253 18.8541 258.825 20.1815C255.395 21.4961 252.244 22.9278 249.359 24.268C243.609 26.99 238.957 29.4414 235.745 31.1003C234.04 31.7135 231.971 32.469 229.549 33.22C227.123 33.9773 224.356 34.7526 221.307 35.4907C215.212 36.9654 207.994 38.3022 200.233 39.0084C197.379 39.2629 194.588 39.4262 191.89 39.4646C189.197 39.4951 186.602 39.4169 184.133 39.2392C181.67 39.0374 179.343 38.7233 177.18 38.3278C176.641 38.2222 176.115 38.1005 175.597 37.9917C175.337 37.9356 175.079 37.8797 174.825 37.8268C174.573 37.758 174.322 37.6939 174.077 37.6298C173.582 37.5001 173.099 37.372 172.626 37.2455C172.34 37.1606 172.061 37.0709 171.784 36.9812ZM608.703 27.3181C607.068 27.3181 605.741 25.9906 605.741 24.3606V25.507H489.408C488.026 26.8072 485.189 28.4886 483.506 28.4886C481.223 28.4886 479.37 26.6375 479.37 24.3606C479.37 22.0725 481.223 20.2215 483.506 20.2215C485.278 20.2215 488.332 21.7845 489.615 23.2031H605.741V24.3606C605.741 22.7177 607.068 21.3905 608.703 21.3905C610.341 21.3905 611.669 22.7177 611.669 24.3606C611.669 25.9906 610.341 27.3181 608.703 27.3181ZM614.764 30.1377L616.085 24.3062C616.099 24.2421 616.099 24.1623 616.081 24.0838L614.706 18.5788C614.602 18.1576 615.049 17.8295 615.422 18.0393L619.518 20.3914C620.925 21.1936 622.438 21.7988 624.017 22.1783L630.098 23.6769C630.579 23.781 630.601 24.4647 630.13 24.6104L623.042 26.8171C622.136 27.0973 621.258 27.4718 620.427 27.9314L615.476 30.6709C615.105 30.8742 614.668 30.5476 614.764 30.1377ZM465.216 34.3217L464.841 34.2864L464.144 34.5747L465.144 34.3602L465.216 34.3217ZM340.845 8.76989L341.698 8.50094C342.01 8.42249 342.324 8.3439 342.641 8.25263C343.27 8.0829 343.92 7.9774 344.575 7.8317C345.233 7.72762 345.899 7.5946 346.577 7.51615C347.93 7.33201 349.32 7.24063 350.729 7.2006C353.552 7.13655 356.461 7.35934 359.388 7.79166C363.37 8.38411 367.125 9.31599 370.619 10.3408C374.112 11.3799 377.352 12.483 380.317 13.5206C381.797 14.0474 383.214 14.5325 384.573 15.0449C384.911 15.1762 385.246 15.2948 385.574 15.4133C385.899 15.5446 386.219 15.6741 386.535 15.7926C387.167 16.0568 387.78 16.2924 388.373 16.5294C390.727 17.5286 392.738 18.433 394.358 19.2095C397.788 20.2871 402.729 22.034 408.596 24.2933C414.472 26.5094 421.268 29.2459 428.649 31.59C431.365 32.4499 434.034 33.1849 436.633 33.8126C439.231 34.4387 441.763 34.8807 444.189 35.2362C445.716 35.4363 447.204 35.5787 448.64 35.6699C447.417 35.4394 446.169 35.1497 444.909 34.8102C442.426 34.1329 439.882 33.2777 437.294 32.3378C436.008 31.8638 434.698 31.3789 433.371 30.8873C432.052 30.3573 430.711 29.8192 429.358 29.2764C427.52 28.5303 425.717 27.7842 423.953 27.0444C422.196 26.2935 420.457 25.5985 418.823 24.8075C415.529 23.2703 412.426 21.7844 409.582 20.3914C408.157 19.7093 406.806 19.0238 405.526 18.3689C404.25 17.7108 403.038 17.0818 401.904 16.491C399.637 15.3205 397.68 14.2828 396.094 13.4149C392.709 12.1676 387.793 10.3408 381.928 8.00307C379.02 6.88544 375.823 5.80928 372.39 4.95424C368.961 4.1008 365.288 3.49718 361.494 3.33866C358.707 3.24579 355.976 3.35162 353.4 3.81276L352.914 3.89095C352.754 3.91656 352.597 3.95504 352.439 3.98227C352.122 4.06072 351.806 4.12646 351.492 4.19211C351.177 4.25776 350.865 4.32508 350.556 4.38913C350.245 4.482 349.947 4.57307 349.643 4.66433C349.043 4.84847 348.433 4.99435 347.853 5.20411C347.273 5.41547 346.703 5.63796 346.136 5.84772L345.714 6.00627L345.305 6.18891C345.035 6.32021 344.766 6.44008 344.5 6.57138C343.975 6.81956 343.398 7.04371 342.963 7.3063C342.231 7.72261 341.523 8.23029 340.845 8.76989ZM331.803 16.3868C333.296 15.8856 334.922 15.4132 336.685 15.0449C337.251 14.9264 337.826 14.7953 338.424 14.7168C339.018 14.624 339.621 14.5326 340.244 14.4926C340.556 14.4526 340.867 14.4269 341.184 14.4013C341.499 14.3741 341.82 14.374 342.143 14.3628C342.465 14.35 342.788 14.3356 343.117 14.3356C343.434 14.3356 343.752 14.35 344.074 14.3628C349.22 14.4269 354.879 15.1633 360.629 16.6076C364.533 17.6196 368.22 18.8541 371.648 20.1815C375.076 21.4961 378.229 22.9278 381.115 24.268C386.864 26.99 391.514 29.4414 394.726 31.1003C396.432 31.7135 398.502 32.469 400.926 33.22C403.35 33.9773 406.117 34.7526 409.166 35.4907C415.262 36.9654 422.478 38.3022 430.239 39.0084C433.094 39.2629 435.885 39.4262 438.581 39.4646C441.276 39.4951 443.872 39.4169 446.341 39.2392C448.802 39.0374 451.13 38.7233 453.293 38.3278C453.833 38.2222 454.355 38.1005 454.877 37.9917C455.136 37.9356 455.392 37.8797 455.647 37.8268C455.9 37.758 456.148 37.6939 456.396 37.6298C456.889 37.5001 457.373 37.372 457.847 37.2455C458.14 37.159 458.427 37.0662 458.71 36.975C458.295 37.0678 457.869 37.1591 457.432 37.2439C453.655 37.9933 449.02 38.368 443.902 38.0173C441.351 37.8027 438.679 37.4697 435.955 36.9109C433.233 36.3472 430.446 35.6347 427.652 34.7477C423.849 33.5468 420.264 32.1506 416.924 30.7303C413.585 29.3101 410.482 27.8689 407.641 26.5175C401.965 23.8067 397.307 21.4963 394.065 19.9592C392.36 19.4212 390.259 18.763 387.836 18.0537C385.401 17.3444 382.671 16.6349 379.608 15.8455C376.567 15.0449 373.289 14.1514 369.821 13.2964C366.355 12.443 362.698 11.6296 358.903 11.0644C353.327 10.2222 347.96 10.0925 343.241 10.9844C342.948 11.05 342.655 11.1045 342.364 11.1557C342.077 11.223 341.791 11.3015 341.509 11.3656C340.936 11.4841 340.391 11.668 339.841 11.8137C339.307 11.9834 338.757 12.1675 338.262 12.3501C337.775 12.523 337.306 12.7586 336.845 12.9955C335 13.9675 333.365 15.2292 331.839 16.3596L331.803 16.3868Z" fill="#3D221E"/>
</svg>
