<svg width="631" height="43" viewBox="0 0 631 43" fill="none" xmlns="http://www.w3.org/2000/svg">
<path fill-rule="evenodd" clip-rule="evenodd" d="M466.431 9.80683L466.714 9.9829C467.576 10.5273 468.415 11.3055 468.87 12.359C469.007 12.6088 469.078 12.9052 469.182 13.179C469.214 13.3311 469.247 13.4783 469.286 13.6272C469.329 13.7713 469.334 13.9379 469.361 14.09C469.441 14.7209 469.476 15.3966 469.398 16.1059C469.227 18.0337 468.543 19.8639 467.713 21.3226C467.307 22.0719 466.822 22.6757 466.37 23.2265C465.906 23.7533 465.449 24.1999 465.044 24.5281C464.026 24.7635 462.55 24.8964 460.92 24.621C460.06 24.4513 459.123 24.2912 458.26 23.9902C457.829 23.8445 457.41 23.6749 457.034 23.4779C456.837 23.3867 456.688 23.2537 456.505 23.1624C456.431 23.0968 456.361 23.0422 456.286 22.9782L456.174 22.8997L456.082 22.8068C455.712 22.4385 455.504 22.072 455.389 21.5997C455.282 21.1385 455.314 20.575 455.448 20.0354C455.719 18.945 456.375 17.9522 457.078 17.4206C457.431 17.1452 457.799 16.9897 458.153 16.9481C458.199 16.9401 458.244 16.9307 458.287 16.9259C458.33 16.9275 458.374 16.9274 458.415 16.929C458.502 16.9354 458.588 16.9323 458.672 16.9403C458.827 16.9835 458.993 17.0011 459.128 17.0604C459.266 17.1196 459.389 17.174 459.494 17.2205C459.597 17.2861 459.68 17.3435 459.751 17.39C459.895 17.4828 459.97 17.531 459.97 17.531C459.97 17.531 459.932 17.4492 459.856 17.2955C459.818 17.2155 459.77 17.1194 459.707 17.0025C459.631 16.8984 459.538 16.7768 459.426 16.6375C459.315 16.4998 459.15 16.383 458.976 16.2341C458.88 16.1733 458.776 16.1205 458.663 16.0596C458.606 16.0292 458.547 16.0002 458.487 15.9714C458.426 15.949 458.361 15.9296 458.295 15.9104C457.77 15.7279 457.085 15.7089 456.412 15.9026C455.061 16.2869 453.701 17.3357 452.851 18.9977C452.44 19.8256 452.147 20.8486 452.243 21.9934C452.305 22.5698 452.435 23.1623 452.712 23.7147L452.918 24.1216L453.178 24.4896C453.349 24.7506 453.559 24.9623 453.772 25.172L453.99 25.3959L454.223 25.5658C454.377 25.6842 454.534 25.8028 454.691 25.9085C455.013 26.091 455.335 26.2879 455.656 26.4064C456.302 26.6834 456.937 26.8546 457.544 26.9587C457.847 26.9971 458.143 27.0388 458.438 27.0756C458.724 27.09 459.008 27.1028 459.286 27.1157C459.567 27.1301 459.832 27.1156 460.095 27.1028C460.356 27.0756 460.611 27.0644 460.862 27.0515C461.123 27.0115 461.382 26.9734 461.627 26.9333C461.749 26.9061 461.871 26.8933 461.992 26.8677C462.111 26.8404 462.228 26.802 462.343 26.7748C462.569 26.7091 462.79 26.6434 463.003 26.5778C463.212 26.4993 463.414 26.4063 463.603 26.3279C464.367 25.9996 464.956 25.5931 465.4 25.2521C465.954 25.1192 466.62 24.8691 467.356 24.5025C468.07 24.0958 468.881 23.5818 469.611 22.8325C471.086 21.3754 472.445 19.1417 472.695 16.4021C472.804 15.4013 472.704 14.3815 472.464 13.4336C472.392 13.195 472.346 12.9579 472.25 12.7306C472.157 12.5048 472.062 12.2839 471.971 12.0598C471.74 11.6354 471.526 11.216 471.226 10.8573C470.961 10.481 470.626 10.1734 470.315 9.87563C470.155 9.72992 469.973 9.61617 469.808 9.49128C469.638 9.37279 469.478 9.24805 469.297 9.16479C468.945 8.98065 468.613 8.79969 468.269 8.69881C468.101 8.64117 467.936 8.58844 467.774 8.534C467.614 8.48597 467.449 8.46665 467.296 8.43143L467.081 8.38827L466.277 8.04082C464.681 6.84954 462.53 5.49787 459.815 4.28897C459.366 4.09362 458.912 3.88386 458.441 3.68852C457.964 3.50919 457.474 3.32506 456.976 3.14092C456.724 3.04966 456.473 2.95546 456.217 2.86259C455.957 2.77933 455.697 2.69754 455.432 2.61428C454.904 2.45096 454.366 2.27653 453.815 2.11641C451.601 1.50956 449.197 0.998578 446.643 0.630304C444.086 0.286047 441.387 0.0715876 438.588 0.0123435C435.789 -0.0404959 432.892 0.0778798 429.943 0.337273C421.921 1.06902 414.579 2.83053 408.5 4.82562C405.459 5.82476 402.727 6.88476 400.364 7.92073C397.994 8.9535 396.004 9.97804 394.404 10.8123C390.995 12.0228 386.075 13.9075 380.173 16.1459C377.214 17.2443 374.015 18.4452 370.604 19.5901C367.195 20.7445 363.583 21.8605 359.812 22.8196C354.263 24.2271 348.889 25.119 343.946 25.5001C339.112 25.9596 334.71 25.1192 331.039 24.2385C329.713 23.9263 328.48 23.593 327.346 23.2728C326.644 22.8773 325.965 22.5587 325.329 22.3121L325.014 22.0719C323.427 20.8486 321.976 19.6143 320.93 18.3013C319.867 17.0011 319.32 15.6478 319.369 14.3092C319.408 12.9594 320.011 11.6547 320.676 10.5755C320.85 10.3113 321.015 10.0358 321.188 9.82121C321.275 9.71073 321.355 9.59223 321.444 9.48815C321.541 9.38728 321.632 9.28654 321.721 9.18887C322.09 8.79818 322.485 8.48089 322.855 8.21189C323.717 7.90286 324.809 7.64842 326.082 7.60519C327.348 7.55555 328.788 7.68212 330.265 8.08242C331.002 8.28897 331.748 8.54998 332.469 8.89584C333.183 9.2449 333.873 9.67403 334.472 10.1896C335.067 10.7036 335.567 11.3038 335.897 11.9603C336.23 12.6232 336.396 13.3422 336.38 14.1204C336.38 14.2645 336.355 14.4103 336.348 14.5544L336.332 14.7721L336.289 14.9932L336.204 15.4335L336.075 15.877C335.999 16.1668 335.881 16.4773 335.762 16.7623C335.645 17.0505 335.514 17.3179 335.376 17.5645C335.104 18.0592 334.786 18.4596 334.469 18.695C334.148 18.9448 333.835 19.0762 333.445 19.0891C332.656 19.1291 331.658 18.6167 330.912 17.9682C330.15 17.3117 329.556 16.4997 329.265 15.7375C329.121 15.3596 329.057 14.9962 329.095 14.708C329.124 14.4246 329.265 14.1717 329.492 13.994C329.723 13.8051 330.033 13.6817 330.333 13.6081C330.637 13.528 330.936 13.4976 331.21 13.4767C331.758 13.4415 332.198 13.472 332.496 13.4896C332.792 13.512 332.951 13.5249 332.951 13.5249C332.951 13.5249 332.803 13.4654 332.526 13.3485C332.243 13.2428 331.827 13.0812 331.249 12.9595C330.96 12.9034 330.631 12.8476 330.253 12.8444C329.875 12.8396 329.441 12.8762 328.972 13.0811C328.498 13.2829 328.03 13.7234 327.806 14.3158C327.575 14.8986 327.564 15.5264 327.652 16.1253C327.848 17.323 328.41 18.4724 329.276 19.5356C329.713 20.0624 330.237 20.5603 330.888 20.9927C331.534 21.4138 332.333 21.7836 333.276 21.8749C333.745 21.9261 334.248 21.9024 334.741 21.7839C335.234 21.6782 335.706 21.4667 336.127 21.2041C336.55 20.9543 336.925 20.6388 337.242 20.2978C337.569 19.9567 337.839 19.6012 338.081 19.2201C338.321 18.8534 338.531 18.4726 338.709 18.0899C338.894 17.6976 339.053 17.3196 339.189 16.8921C339.258 16.6807 339.328 16.4709 339.392 16.2563C339.442 16.0338 339.49 15.8097 339.538 15.5855L339.607 15.2478L339.64 14.8969C339.66 14.6599 339.69 14.4246 339.693 14.1845C339.727 12.8747 339.386 11.5328 338.755 10.4232C338.129 9.31039 337.259 8.43149 336.348 7.775C334.499 6.45242 332.504 5.90954 330.704 5.69658C328.893 5.49323 327.234 5.66303 325.838 6.01369C324.435 6.36115 323.305 6.93579 322.482 7.50261C322.014 7.68355 321.497 7.91732 320.971 8.26318C320.841 8.35284 320.706 8.44274 320.567 8.534C320.436 8.63488 320.311 8.74681 320.173 8.8605C319.896 9.08146 319.667 9.32961 319.409 9.5826C318.918 10.1046 318.417 10.7067 317.975 11.4337C317.531 12.159 317.152 13.0205 316.963 14.0084C316.764 14.9931 316.809 16.0978 317.081 17.1498C317.358 18.2082 317.845 19.1929 318.45 20.1007C318.684 20.4482 318.934 20.7831 319.195 21.1065L319.094 21.0871L319.217 21.1337C320.309 22.4787 321.617 23.6363 322.993 24.6995C325.537 26.6433 328.104 28.1019 330.413 29.4277C332.728 30.7295 334.803 31.873 336.478 32.925L336.974 33.2402C337.548 33.8583 338.151 34.4924 338.798 35.1313C339.628 35.9319 340.524 36.7597 341.619 37.5075C342.193 37.8901 342.726 38.1527 343.291 38.4682C343.571 38.6251 343.853 38.7707 344.138 38.926L344.566 39.1631L345.012 39.3617C345.611 39.6258 346.221 39.8997 346.835 40.1622C347.456 40.4264 348.108 40.6233 348.756 40.8587C349.081 40.9772 349.408 41.0958 349.739 41.1871C350.077 41.2799 350.413 41.371 350.754 41.4623C351.095 41.5423 351.436 41.6353 351.781 41.7265C351.954 41.765 352.125 41.8195 352.298 41.8579L352.825 41.9508C355.63 42.5416 358.611 42.7241 361.623 42.62C365.729 42.4487 369.632 41.7009 373.193 40.6473C376.759 39.5841 380 38.2585 382.892 36.8654C388.573 34.0665 393.24 31.6487 396.424 29.9546C398.114 29.3238 400.185 28.5361 402.566 27.6154C404.94 26.6835 407.632 25.6185 410.572 24.4624C413.51 23.3064 416.685 22.032 420.028 20.6533C421.692 19.9296 423.434 19.2986 425.195 18.6037C426.96 17.9072 428.756 17.1916 430.58 16.4502C431.917 15.901 433.24 15.3566 434.543 14.8202C435.856 14.2951 437.152 13.781 438.423 13.2735C440.956 12.2551 443.383 11.3072 445.719 10.513C448.056 9.72839 450.3 9.10711 452.433 8.72602C454.568 8.33533 456.582 8.19595 458.426 8.24879C461.757 8.35607 464.489 9.0991 466.431 9.80683V9.80683ZM21.7685 15.3294C23.4049 15.3294 24.7307 16.6569 24.7307 18.2869V17.1404H141.062C142.447 15.8402 145.286 14.1588 146.966 14.1588C149.251 14.1588 151.102 16.01 151.102 18.2869C151.102 20.575 149.251 22.4259 146.966 22.4259C145.195 22.4259 142.141 20.863 140.857 19.4443H24.7307V18.2869C24.7307 19.9297 23.4049 21.2569 21.7685 21.2569C20.1321 21.2569 18.8063 19.9297 18.8063 18.2869C18.8063 16.6569 20.1321 15.3294 21.7685 15.3294ZM15.7096 12.5098L14.3886 18.3413C14.371 18.4054 14.3726 18.4852 14.3902 18.5637L15.7672 24.0687C15.8713 24.4898 15.4245 24.8179 15.0515 24.6082L10.9556 22.2561C9.54818 21.4539 8.03344 20.8486 6.45626 20.4691L0.373331 18.9705C-0.108628 18.8664 -0.129434 18.1827 0.342918 18.037L7.4298 15.8304C8.33607 15.5502 9.2135 15.1757 10.0461 14.7161L14.9986 11.9766C15.3669 11.7732 15.8024 12.0999 15.7096 12.5098V12.5098ZM297.523 13.5249C297.523 13.5249 297.67 13.4654 297.947 13.3485C298.23 13.2428 298.647 13.0812 299.223 12.9595C299.511 12.9034 299.841 12.8476 300.221 12.8444C300.597 12.8396 301.032 12.8762 301.502 13.0811C301.974 13.2829 302.443 13.7234 302.667 14.3158C302.898 14.8986 302.907 15.5264 302.819 16.1253C302.626 17.323 302.062 18.4724 301.196 19.5356C300.76 20.0624 300.235 20.5603 299.583 20.9927C298.938 21.4138 298.142 21.7836 297.198 21.8749C296.725 21.9261 296.224 21.9024 295.731 21.7839C295.239 21.6782 294.765 21.4667 294.346 21.2041C293.923 20.9543 293.548 20.6388 293.233 20.2978C292.906 19.9567 292.634 19.6012 292.392 19.2201C292.152 18.8534 291.942 18.4726 291.763 18.0899C291.577 17.6976 291.419 17.3196 291.284 16.8921C291.214 16.6807 291.142 16.4709 291.078 16.2563C291.031 16.0338 290.983 15.8097 290.934 15.5855L290.867 15.2478L290.831 14.8969C290.814 14.6599 290.783 14.4246 290.778 14.1845C290.745 12.8747 291.086 11.5328 291.717 10.4232C292.344 9.31039 293.211 8.43149 294.125 7.775C295.974 6.45242 297.968 5.90954 299.768 5.69658C301.58 5.49323 303.239 5.66303 304.635 6.01369C306.036 6.36115 307.168 6.93579 307.99 7.50261C308.457 7.68355 308.976 7.91732 309.503 8.26318C309.632 8.35284 309.767 8.44274 309.903 8.534C310.038 8.63488 310.162 8.74681 310.297 8.8605C310.576 9.08146 310.806 9.32961 311.062 9.5826C311.556 10.1046 312.057 10.7067 312.499 11.4337C312.939 12.159 313.318 13.0205 313.511 14.0084C313.708 14.9931 313.664 16.0978 313.391 17.1498C313.115 18.2082 312.627 19.1929 312.02 20.1007C311.786 20.4482 311.538 20.7831 311.277 21.1065L311.378 21.0871L311.254 21.1337C310.164 22.4787 308.854 23.6363 307.477 24.6995C304.936 26.6433 302.369 28.1019 300.059 29.4277C297.745 30.7295 295.667 31.873 293.994 32.925L293.496 33.2402C292.922 33.8583 292.32 34.494 291.674 35.1313C290.847 35.9319 289.947 36.7597 288.854 37.5075C288.281 37.8901 287.744 38.1527 287.181 38.4682C286.9 38.6251 286.62 38.7707 286.335 38.926L285.908 39.1631L285.461 39.3617C284.859 39.6258 284.252 39.8997 283.637 40.1622C283.017 40.4264 282.364 40.6233 281.717 40.8587C281.391 40.9772 281.066 41.0958 280.733 41.1871C280.396 41.2799 280.058 41.371 279.719 41.4623C279.378 41.5423 279.034 41.6353 278.693 41.7265C278.52 41.765 278.347 41.8195 278.174 41.8579L277.647 41.9508C274.842 42.5416 271.862 42.7241 268.848 42.62C264.745 42.4487 260.839 41.7009 257.278 40.6473C253.712 39.5841 250.472 38.2585 247.581 36.8654C241.9 34.0665 237.231 31.6487 234.048 29.9546C232.359 29.3238 230.289 28.5361 227.908 27.6154C225.533 26.6835 222.841 25.6185 219.9 24.4624C216.963 23.3064 213.787 22.032 210.443 20.6533C208.781 19.9296 207.036 19.2986 205.278 18.6037C203.513 17.9072 201.715 17.1916 199.893 16.4502C198.556 15.901 197.232 15.3566 195.93 14.8202C194.616 14.2951 193.322 13.781 192.051 13.2735C189.517 12.2551 187.088 11.3072 184.752 10.513C182.418 9.72839 180.171 9.10711 178.04 8.72602C175.906 8.33533 173.89 8.19595 172.045 8.24879C168.716 8.35607 165.986 9.0991 164.042 9.80683L163.759 9.9829C162.898 10.5273 162.059 11.3055 161.604 12.359C161.466 12.6088 161.394 12.9052 161.292 13.179C161.26 13.3311 161.224 13.4783 161.186 13.6272C161.144 13.7713 161.141 13.9379 161.111 14.09C161.032 14.7209 160.997 15.3966 161.077 16.1059C161.245 18.0337 161.927 19.8639 162.76 21.3226C163.165 22.0719 163.652 22.6757 164.1 23.2265C164.568 23.7533 165.022 24.1999 165.427 24.5281C166.447 24.7635 167.924 24.8964 169.551 24.621C170.412 24.4513 171.352 24.2912 172.212 23.9902C172.642 23.8445 173.062 23.6749 173.438 23.4779C173.637 23.3867 173.784 23.2537 173.967 23.1624C174.04 23.0968 174.112 23.0422 174.188 22.9782L174.3 22.8997L174.389 22.8068C174.758 22.4385 174.969 22.072 175.084 21.5997C175.19 21.1385 175.16 20.575 175.025 20.0354C174.753 18.945 174.095 17.9522 173.395 17.4206C173.043 17.1452 172.673 16.9897 172.321 16.9481C172.274 16.9401 172.229 16.9307 172.185 16.9259C172.141 16.9275 172.098 16.9274 172.056 16.929C171.972 16.9354 171.883 16.9323 171.8 16.9403C171.645 16.9835 171.48 17.0011 171.345 17.0604C171.206 17.1196 171.083 17.174 170.977 17.2205C170.876 17.2861 170.791 17.3435 170.723 17.39C170.577 17.4828 170.502 17.531 170.502 17.531C170.502 17.531 170.542 17.4492 170.615 17.2955C170.652 17.2155 170.7 17.1194 170.766 17.0025C170.843 16.8984 170.934 16.7768 171.048 16.6375C171.158 16.4998 171.323 16.383 171.496 16.2341C171.592 16.1733 171.696 16.1205 171.808 16.0596C171.867 16.0292 171.925 16.0002 171.986 15.9714C172.047 15.949 172.111 15.9296 172.176 15.9104C172.703 15.7279 173.389 15.7089 174.06 15.9026C175.411 16.2869 176.772 17.3357 177.621 18.9977C178.034 19.8256 178.327 20.8486 178.231 21.9934C178.167 22.5698 178.035 23.1623 177.761 23.7147L177.555 24.1216L177.294 24.4896C177.124 24.7506 176.914 24.9623 176.701 25.172L176.48 25.3959L176.25 25.5658C176.095 25.6842 175.938 25.8028 175.781 25.9085C175.461 26.091 175.135 26.2879 174.815 26.4064C174.168 26.6834 173.536 26.8546 172.927 26.9587C172.626 26.9971 172.329 27.0388 172.036 27.0756C171.749 27.09 171.466 27.1028 171.187 27.1157C170.907 27.1301 170.641 27.1156 170.378 27.1028C170.116 27.0756 169.86 27.0644 169.61 27.0515C169.35 27.0115 169.093 26.9734 168.846 26.9333C168.721 26.9061 168.599 26.8933 168.481 26.8677C168.364 26.8404 168.246 26.802 168.129 26.7748C167.903 26.7091 167.684 26.6434 167.471 26.5778C167.258 26.4993 167.061 26.4063 166.87 26.3279C166.106 25.9996 165.516 25.5931 165.075 25.2521C164.52 25.1192 163.854 24.8691 163.117 24.5025C162.401 24.0958 161.591 23.5818 160.862 22.8325C159.388 21.3754 158.028 19.1417 157.775 16.4021C157.67 15.4013 157.769 14.3815 158.009 13.4336C158.08 13.195 158.128 12.9579 158.224 12.7306C158.317 12.5048 158.409 12.2839 158.502 12.0598C158.733 11.6354 158.947 11.216 159.247 10.8573C159.511 10.481 159.847 10.1734 160.158 9.87563C160.318 9.72992 160.499 9.61617 160.666 9.49128C160.834 9.37279 160.995 9.24805 161.176 9.16479C161.529 8.98065 161.86 8.79969 162.204 8.69881C162.372 8.64117 162.537 8.58844 162.697 8.534C162.859 8.48597 163.022 8.46665 163.176 8.43143L163.391 8.38827L164.195 8.04082C165.791 6.85114 167.941 5.49787 170.66 4.28897C171.104 4.09362 171.562 3.88386 172.032 3.68852C172.51 3.50919 173 3.32506 173.497 3.14092C173.747 3.04966 174 2.95546 174.256 2.86259C174.514 2.77933 174.775 2.69754 175.039 2.61428C175.569 2.45096 176.107 2.27653 176.658 2.11641C178.873 1.50956 181.276 0.998578 183.83 0.630304C186.386 0.286047 189.085 0.0715876 191.886 0.0123435C194.683 -0.0404959 197.579 0.0778798 200.53 0.337273C208.552 1.06902 215.894 2.83053 221.972 4.82562C225.014 5.82476 227.744 6.88476 230.111 7.92073C232.476 8.9535 234.468 9.97804 236.066 10.8123C239.476 12.0228 244.398 13.9075 250.302 16.1459C253.261 17.2443 256.458 18.4452 259.869 19.5901C263.278 20.7445 266.89 21.8605 270.659 22.8196C276.209 24.2271 281.583 25.119 286.524 25.5001C291.361 25.9596 295.76 25.1192 299.433 24.2385C300.759 23.9263 301.993 23.593 303.125 23.2728C303.83 22.8773 304.509 22.5587 305.144 22.3121L305.46 22.0719C307.045 20.8486 308.497 19.6143 309.543 18.3013C310.604 17.0011 311.154 15.6478 311.104 14.3092C311.064 12.9594 310.46 11.6547 309.797 10.5755C309.621 10.3113 309.458 10.0358 309.283 9.82121C309.197 9.71073 309.117 9.59223 309.027 9.48815C308.934 9.38728 308.841 9.28654 308.752 9.18887C308.382 8.79818 307.988 8.48089 307.617 8.21189C306.755 7.90286 305.663 7.64842 304.39 7.60519C303.124 7.55555 301.686 7.68212 300.208 8.08242C299.471 8.28897 298.725 8.54998 298.005 8.89584C297.289 9.2449 296.6 9.67403 296.002 10.1896C295.406 10.7036 294.906 11.3038 294.575 11.9603C294.243 12.6232 294.075 13.3422 294.091 14.1204C294.093 14.2645 294.118 14.4103 294.125 14.5544L294.139 14.7721L294.184 14.9932L294.266 15.4335L294.399 15.877C294.474 16.1668 294.592 16.4773 294.711 16.7623C294.828 17.0505 294.958 17.3179 295.094 17.5645C295.367 18.0592 295.686 18.4596 296.005 18.695C296.323 18.9448 296.636 19.0762 297.026 19.0891C297.814 19.1291 298.815 18.6167 299.561 17.9682C300.32 17.3117 300.917 16.4997 301.209 15.7375C301.351 15.3596 301.415 14.9962 301.377 14.708C301.348 14.4246 301.209 14.1717 300.981 13.994C300.749 13.8051 300.438 13.6817 300.137 13.6081C299.836 13.528 299.535 13.4976 299.262 13.4767C298.716 13.4415 298.275 13.472 297.977 13.4896C297.678 13.512 297.523 13.5249 297.523 13.5249V13.5249ZM165.258 8.32572L165.631 8.36106L166.326 8.07272L165.33 8.28726L165.258 8.32572V8.32572ZM181.83 6.97753C183.053 7.2097 184.301 7.49778 185.562 7.83723C188.048 8.51454 190.59 9.3698 193.178 10.3097C194.465 10.7837 195.772 11.2686 197.102 11.7602C198.422 12.2902 199.759 12.8282 201.113 13.371C202.953 14.1172 204.756 14.8633 206.519 15.603C208.277 16.354 210.014 17.049 211.651 17.84C214.944 19.3771 218.046 20.8631 220.89 22.2561C222.316 22.9382 223.668 23.6237 224.947 24.2785C226.223 24.9366 227.432 25.5657 228.569 26.1565C230.835 27.327 232.79 28.3647 234.38 29.2325C237.765 30.4799 242.68 32.3066 248.545 34.6444C251.452 35.762 254.649 36.8382 258.08 37.6932C261.513 38.5467 265.185 39.1503 268.978 39.3088C271.767 39.4017 274.496 39.2958 277.074 38.8347L277.559 38.7565C277.717 38.7309 277.876 38.6924 278.033 38.6652C278.352 38.5867 278.665 38.521 278.981 38.4554C279.295 38.3897 279.607 38.3224 279.918 38.2583C280.227 38.1655 280.528 38.0744 280.829 37.9831C281.431 37.799 282.042 37.6531 282.62 37.4433C283.198 37.232 283.772 37.0095 284.337 36.7997L284.756 36.6412L285.166 36.4586C285.438 36.3273 285.706 36.2074 285.973 36.0761C286.497 35.8279 287.075 35.6038 287.509 35.3412C288.242 34.9248 288.952 34.4172 289.632 33.876L288.775 34.1465C288.462 34.225 288.148 34.3036 287.832 34.3948C287.2 34.5646 286.551 34.6701 285.896 34.8158C285.237 34.9198 284.572 35.0529 283.893 35.1313C282.542 35.3155 281.154 35.4068 279.745 35.4469C276.919 35.5109 274.012 35.2881 271.085 34.8558C267.103 34.2634 263.347 33.3315 259.853 32.3067C256.359 31.2675 253.122 30.1644 250.156 29.1268C248.674 28.6 247.256 28.115 245.9 27.6026C245.562 27.4713 245.229 27.3527 244.899 27.2342C244.574 27.1029 244.254 26.9733 243.939 26.8548C243.306 26.5906 242.693 26.355 242.101 26.118C239.747 25.1189 237.736 24.2145 236.114 23.4379C232.686 22.3603 227.744 20.6134 221.877 18.3541C216 16.1381 209.206 13.4016 201.824 11.0574C199.109 10.1976 196.436 9.46252 193.839 8.83485C191.242 8.20879 188.709 7.76676 186.285 7.41129C184.755 7.21114 183.266 7.0688 181.83 6.97753V6.97753ZM171.784 5.66624C172.191 5.57497 172.609 5.48681 173.038 5.40355C176.817 4.65419 181.454 4.2795 186.571 4.63016C189.122 4.84472 191.794 5.17779 194.518 5.73661C197.238 6.30023 200.026 7.01272 202.82 7.89978C206.625 9.10068 210.206 10.4969 213.548 11.9171C216.888 13.3374 219.988 14.7786 222.832 16.13C228.508 18.8408 233.166 21.1512 236.408 22.6883C238.114 23.2263 240.213 23.8844 242.637 24.5938C245.071 25.3031 247.801 26.0126 250.865 26.802C253.906 27.6026 257.184 28.496 260.65 29.3511C264.117 30.2045 267.776 31.0178 271.569 31.583C277.144 32.4253 282.513 32.555 287.23 31.6631C287.525 31.5975 287.816 31.543 288.108 31.4917C288.396 31.4245 288.681 31.3459 288.964 31.2819C289.537 31.1634 290.082 30.9794 290.633 30.8337C291.166 30.664 291.717 30.4799 292.212 30.2974C292.695 30.1245 293.166 29.8889 293.629 29.6519C295.472 28.68 297.108 27.4183 298.632 26.2879L298.668 26.2606C297.174 26.7602 295.55 27.2343 293.789 27.6026C293.222 27.7211 292.645 27.8522 292.048 27.9306C291.456 28.0235 290.851 28.1148 290.229 28.1549C289.917 28.1949 289.605 28.2206 289.289 28.2462C288.972 28.2734 288.654 28.2734 288.33 28.2847C288.008 28.2975 287.683 28.3119 287.357 28.3119C287.04 28.3119 286.721 28.2975 286.398 28.2847C281.251 28.2206 275.594 27.4841 269.844 26.0399C265.941 25.0279 262.253 23.7933 258.825 22.4659C255.395 21.1514 252.244 19.7197 249.359 18.3795C243.609 15.6574 238.957 13.206 235.745 11.5472C234.04 10.9339 231.971 10.1784 229.549 9.42748C227.123 8.67012 224.356 7.89488 221.307 7.15673C215.212 5.68203 207.994 4.34523 200.233 3.63911C197.379 3.38452 194.588 3.22126 191.89 3.18283C189.197 3.15241 186.602 3.23058 184.133 3.40831C181.67 3.61006 179.343 3.92412 177.18 4.31961C176.641 4.42529 176.115 4.54692 175.597 4.6558C175.337 4.71184 175.079 4.76777 174.825 4.82061C174.573 4.88946 174.322 4.95359 174.077 5.01763C173.582 5.14733 173.099 5.27549 172.626 5.40198C172.34 5.48685 172.061 5.57658 171.784 5.66624V5.66624ZM608.703 15.3294C607.068 15.3294 605.741 16.6569 605.741 18.2869V17.1404H489.408C488.026 15.8402 485.189 14.1588 483.506 14.1588C481.223 14.1588 479.37 16.01 479.37 18.2869C479.37 20.575 481.223 22.4259 483.506 22.4259C485.278 22.4259 488.332 20.863 489.615 19.4443H605.741V18.2869C605.741 19.9297 607.068 21.2569 608.703 21.2569C610.341 21.2569 611.669 19.9297 611.669 18.2869C611.669 16.6569 610.341 15.3294 608.703 15.3294ZM614.764 12.5098L616.085 18.3413C616.099 18.4054 616.099 18.4852 616.082 18.5637L614.706 24.0687C614.602 24.4898 615.049 24.8179 615.422 24.6082L619.518 22.2561C620.925 21.4539 622.438 20.8486 624.017 20.4691L630.098 18.9705C630.579 18.8664 630.601 18.1827 630.13 18.037L623.042 15.8304C622.136 15.5502 621.258 15.1757 620.427 14.7161L615.476 11.9766C615.105 11.7732 614.668 12.0999 614.764 12.5098V12.5098ZM465.216 8.32572L464.841 8.36106L464.144 8.07272L465.144 8.28726L465.216 8.32572V8.32572ZM340.845 33.8776L341.698 34.1465C342.01 34.225 342.324 34.3036 342.641 34.3948C343.27 34.5646 343.92 34.6701 344.575 34.8158C345.233 34.9198 345.899 35.0529 346.577 35.1313C347.93 35.3155 349.32 35.4068 350.729 35.4469C353.552 35.5109 356.461 35.2881 359.388 34.8558C363.37 34.2634 367.125 33.3315 370.619 32.3067C374.112 31.2675 377.352 30.1644 380.317 29.1268C381.797 28.6 383.214 28.115 384.573 27.6026C384.911 27.4713 385.246 27.3527 385.574 27.2342C385.899 27.1029 386.219 26.9733 386.535 26.8548C387.167 26.5906 387.78 26.355 388.373 26.118C390.727 25.1189 392.738 24.2145 394.358 23.4379C397.788 22.3603 402.729 20.6134 408.596 18.3541C414.472 16.1381 421.268 13.4016 428.649 11.0574C431.365 10.1976 434.034 9.46252 436.633 8.83485C439.231 8.20879 441.763 7.76676 444.189 7.41129C445.716 7.21114 447.204 7.0688 448.64 6.97753C447.417 7.2081 446.169 7.49778 444.909 7.83723C442.426 8.51454 439.881 9.3698 437.294 10.3097C436.008 10.7837 434.698 11.2686 433.371 11.7602C432.052 12.2902 430.711 12.8282 429.358 13.371C427.52 14.1172 425.717 14.8633 423.953 15.603C422.196 16.354 420.457 17.049 418.823 17.84C415.529 19.3771 412.426 20.8631 409.582 22.2561C408.157 22.9382 406.806 23.6237 405.526 24.2785C404.25 24.9366 403.038 25.5657 401.904 26.1565C399.637 27.327 397.68 28.3647 396.094 29.2325C392.709 30.4799 387.793 32.3066 381.928 34.6444C379.02 35.762 375.823 36.8382 372.39 37.6932C368.961 38.5467 365.288 39.1503 361.494 39.3088C358.707 39.4017 355.976 39.2958 353.4 38.8347L352.914 38.7565C352.754 38.7309 352.597 38.6924 352.439 38.6652C352.122 38.5867 351.806 38.521 351.492 38.4554C351.177 38.3897 350.865 38.3224 350.556 38.2583C350.245 38.1655 349.947 38.0744 349.643 37.9831C349.043 37.799 348.433 37.6531 347.853 37.4433C347.273 37.232 346.703 37.0095 346.136 36.7997L345.714 36.6412L345.305 36.4586C345.035 36.3273 344.766 36.2074 344.5 36.0761C343.975 35.8279 343.398 35.6038 342.963 35.3412C342.231 34.9248 341.523 34.4172 340.845 33.8776V33.8776ZM331.803 26.2606C333.296 26.7618 334.922 27.2343 336.685 27.6026C337.251 27.7211 337.826 27.8522 338.424 27.9306C339.018 28.0235 339.621 28.1148 340.244 28.1549C340.556 28.1949 340.867 28.2206 341.184 28.2462C341.499 28.2734 341.82 28.2734 342.143 28.2847C342.465 28.2975 342.788 28.3119 343.117 28.3119C343.434 28.3119 343.752 28.2975 344.074 28.2847C349.22 28.2206 354.879 27.4841 360.629 26.0399C364.533 25.0279 368.22 23.7933 371.648 22.4659C375.076 21.1514 378.229 19.7197 381.115 18.3795C386.864 15.6574 391.514 13.206 394.726 11.5472C396.432 10.9339 398.502 10.1784 400.926 9.42748C403.35 8.67012 406.117 7.89488 409.166 7.15673C415.262 5.68203 422.478 4.34523 430.239 3.63911C433.094 3.38452 435.885 3.22126 438.581 3.18283C441.276 3.15241 443.872 3.23058 446.341 3.40831C448.802 3.61006 451.13 3.92412 453.293 4.31961C453.833 4.42529 454.355 4.54692 454.877 4.6558C455.136 4.71184 455.392 4.76777 455.647 4.82061C455.9 4.88946 456.148 4.95359 456.396 5.01763C456.889 5.14733 457.373 5.27549 457.847 5.40198C458.14 5.48845 458.427 5.58123 458.71 5.6725C458.295 5.57963 457.869 5.48841 457.432 5.40355C453.655 4.65419 449.019 4.2795 443.902 4.63016C441.351 4.84472 438.679 5.17779 435.955 5.73661C433.233 6.30023 430.446 7.01272 427.652 7.89978C423.849 9.10068 420.264 10.4969 416.924 11.9171C413.585 13.3374 410.482 14.7786 407.641 16.13C401.965 18.8408 397.307 21.1512 394.065 22.6883C392.36 23.2263 390.259 23.8844 387.836 24.5938C385.401 25.3031 382.671 26.0126 379.608 26.802C376.567 27.6026 373.289 28.496 369.821 29.3511C366.355 30.2045 362.698 31.0178 358.903 31.583C353.327 32.4253 347.96 32.555 343.241 31.6631C342.948 31.5975 342.655 31.543 342.364 31.4917C342.077 31.4245 341.791 31.3459 341.509 31.2819C340.936 31.1634 340.391 30.9794 339.841 30.8337C339.307 30.664 338.757 30.4799 338.262 30.2974C337.775 30.1245 337.306 29.8889 336.845 29.6519C335 28.68 333.365 27.4183 331.839 26.2879L331.803 26.2606V26.2606Z" fill="white"/>
</svg>
