<svg width="140" height="138" viewBox="0 0 140 138" fill="none" xmlns="http://www.w3.org/2000/svg">
<path fill-rule="evenodd" clip-rule="evenodd" d="M29.0624 0.32235C18.66 2.3088 10.6492 10.5252 8.81603 21.0879C7.1659 30.598 11.4379 40.7132 19.4059 46.1624L21.0969 47.3188L18.6099 48.6223C14.8983 50.5676 12.7625 52.1322 9.94057 54.9726C5.33636 59.607 2.39292 64.9204 0.794282 71.4843C0.239292 73.7625 0.205428 74.783 0.105512 92.2837L0 110.687L0.966685 111.661L1.93309 112.634H19.1733H36.4136V124.176C36.4136 131.875 36.5146 135.942 36.7172 136.39C36.8843 136.759 37.3761 137.273 37.8101 137.531C38.5336 137.961 41.2148 138 70.1395 138H101.68L102.632 137.042L103.583 136.083V124.359V112.634H120.824H138.064L139.032 111.659L140 110.684L139.888 92.282C139.79 76.3721 139.712 73.6196 139.311 71.9567C137.628 64.9798 134.779 59.7553 130.047 54.9695C127.246 52.1367 125.123 50.5803 121.387 48.6223L118.9 47.3188L120.591 46.1624C125.569 42.758 129.41 37.1193 130.925 30.9912C131.578 28.3503 131.578 22.1728 130.925 19.5319C128.592 10.0934 121.458 2.90801 112.072 0.543318C109.185 -0.183846 103.036 -0.10211 100.085 0.702843C91.2126 3.12277 84.3277 10.0627 82.0123 18.92C81.6574 20.2768 81.3616 22.4997 81.269 24.5014C81.1346 27.4134 81.0591 27.8052 80.6647 27.6437C75.0566 25.3458 70.8034 24.7889 65.7018 25.6848C63.6702 26.0417 61.9507 26.5704 59.335 27.6425C58.9446 27.8026 58.8662 27.4004 58.7237 24.5005C58.6289 22.5702 58.316 20.2286 57.9779 18.92C55.6947 10.083 48.6872 3.0261 39.912 0.726799C36.947 -0.0499686 31.9818 -0.235141 29.0624 0.32235ZM37.4749 5.96294C38.7584 6.21914 40.7091 6.92093 42.2909 7.69545C44.5137 8.78394 45.3446 9.39526 47.3575 11.422C49.3701 13.4491 49.9771 14.2859 51.058 16.5243C53.1039 20.7618 53.6404 24.6166 52.7999 29.0402C52.332 31.5033 51.5013 33.552 50.5612 34.5624C50.2007 34.95 49.334 36.1644 48.6351 37.2611C47.177 39.5503 45.9184 40.7791 43.5436 42.2318C38.0021 45.6218 31.0114 45.8512 24.9387 42.8428C22.7333 41.7501 21.8694 41.112 19.8722 39.101C17.8596 37.074 17.2526 36.2372 16.1717 33.9987C14.7684 31.0921 14.0236 28.0631 14.0236 25.2615C14.0236 22.46 14.7684 19.431 16.1717 16.5243C17.2526 14.2859 17.8596 13.4491 19.8722 11.422C21.8834 9.39695 22.7179 8.78281 24.9387 7.69404C29.1545 5.62698 33.0783 5.08527 37.4749 5.96294ZM110.242 5.96294C111.526 6.21914 113.476 6.92093 115.058 7.69545C117.281 8.78394 118.112 9.39526 120.125 11.422C122.137 13.4491 122.744 14.2859 123.825 16.5243C126.672 22.4199 126.672 28.1031 123.825 33.9987C122.744 36.2372 122.137 37.074 120.125 39.101C118.114 41.1261 117.279 41.7402 115.058 42.829C108.899 45.8487 102.004 45.6274 96.4533 42.2318C94.0785 40.7791 92.8199 39.5503 91.3618 37.2611C90.663 36.1644 89.7962 34.95 89.4357 34.5624C88.4956 33.552 87.6649 31.5033 87.197 29.0402C86.3529 24.5969 86.8925 20.6886 88.9249 16.5243C90.0097 14.3019 90.6411 13.4344 92.6394 11.422C94.6506 9.39695 95.4852 8.78281 97.706 7.69404C101.922 5.62698 105.846 5.08527 110.242 5.96294ZM73.8585 31.3291C75.142 31.5853 77.0927 32.2871 78.6746 33.0616C80.8973 34.1501 81.7283 34.7614 83.7411 36.7882C85.7537 38.8152 86.3607 39.652 87.4416 41.8904C90.2851 47.7796 90.2835 53.4086 87.4366 59.3649C86.3579 61.6214 85.7778 62.4235 83.745 64.4672C81.7313 66.4914 80.8945 67.1067 78.6746 68.1937C75.7882 69.6069 72.7804 70.3569 69.9985 70.3569C67.2165 70.3569 64.2087 69.6069 61.3224 68.1937C59.0996 67.1052 58.2687 66.4939 56.2558 64.4672C54.2432 62.4401 53.6362 61.6033 52.5553 59.3649C49.7098 53.4715 49.7054 47.701 52.5413 41.8904C53.6261 39.6681 54.2575 38.8006 56.2558 36.7882C58.267 34.7631 59.1016 34.149 61.3224 33.0602C65.5381 30.9931 69.4619 30.4514 73.8585 31.3291ZM40.6478 51.5665C44.254 52.5065 45.0897 52.9591 45.0897 53.9721C45.0897 55.3088 46.1272 58.9413 47.1389 61.1462C49.0521 65.3169 52.1324 69.0277 55.7145 71.4772L57.4805 72.685L54.9936 73.9885C51.2819 75.9338 49.1462 77.4983 46.3242 80.3388C40.0749 86.629 36.9109 93.9686 36.5031 103.122L36.3305 106.997H20.9791H5.62743V91.8141C5.62743 79.4862 5.70747 76.1689 6.0534 74.1714C8.10291 62.3356 16.9802 53.3075 28.7842 51.0547C31.9795 50.4447 37.2093 50.6705 40.6478 51.5665ZM110.99 51.0566C116.864 52.0882 121.969 54.7438 126.126 58.9294C129.558 62.3857 132.315 67.2462 133.574 72.0604C134.178 74.3679 134.201 74.9606 134.298 90.7203L134.399 106.997H119.033H103.666L103.494 103.122C103.086 93.9686 99.922 86.629 93.6727 80.3388C90.8508 77.4983 88.715 75.9338 85.0033 73.9885L82.5164 72.685L84.2897 71.4722C87.8234 69.0556 90.968 65.2662 92.858 61.1462C93.8698 58.9413 94.9072 55.3088 94.9072 53.9721C94.9072 53.0515 95.5387 52.6412 98.1154 51.887C102.474 50.6108 106.846 50.3289 110.99 51.0566ZM76.5755 76.8033C86.7257 79.3436 94.472 87.1301 97.2198 97.5551C97.7866 99.705 97.8191 100.566 97.9148 116.086L98.0153 132.363H70.013H42.0111V117.18C42.0111 104.852 42.0911 101.535 42.437 99.5376C44.4865 87.702 53.3644 78.6733 65.1678 76.4208C68.0738 75.8662 73.5669 76.0505 76.5755 76.8033Z" fill="#3D221E"/>
</svg>
