<svg width="152" height="13" viewBox="0 0 152 13" fill="none" xmlns="http://www.w3.org/2000/svg">
<path fill-rule="evenodd" clip-rule="evenodd" d="M21.7685 3.41494C23.4049 3.41494 24.7307 4.74244 24.7307 6.37245V5.22598H141.062C142.447 3.92581 145.286 2.24438 146.966 2.24438C149.251 2.24438 151.102 4.09556 151.102 6.37245C151.102 8.66056 149.251 10.5115 146.966 10.5115C145.195 10.5115 142.141 8.94854 140.857 7.52988H24.7307V6.37245C24.7307 8.01528 23.4049 9.34248 21.7685 9.34248C20.1321 9.34248 18.8063 8.01528 18.8063 6.37245C18.8063 4.74244 20.1321 3.41494 21.7685 3.41494ZM15.7096 0.595339L14.3886 6.42687C14.371 6.49092 14.3726 6.57076 14.3902 6.64922L15.7672 12.1543C15.8713 12.5754 15.4245 12.9035 15.0515 12.6937L10.9556 10.3417C9.54818 9.53946 8.03343 8.93419 6.45626 8.5547L0.373331 7.05609C-0.108628 6.95201 -0.129434 6.26829 0.342918 6.12258L7.4298 3.91594C8.33607 3.63573 9.2135 3.26121 10.0461 2.80167L14.9986 0.0621292C15.3669 -0.141222 15.8024 0.185434 15.7096 0.595339Z" fill="#3D221E"/>
</svg>
